<?xml version="1.0" encoding="utf-8" standalone="no"?>
<!DOCTYPE svg PUBLIC "-//W3C//DTD SVG 1.1//EN"
  "http://www.w3.org/Graphics/SVG/1.1/DTD/svg11.dtd">
<!-- Created with matplotlib (http://matplotlib.org/) -->
<svg height="288pt" version="1.1" viewBox="0 0 576 288" width="576pt" xmlns="http://www.w3.org/2000/svg" xmlns:xlink="http://www.w3.org/1999/xlink">
 <defs>
  <style type="text/css">
*{stroke-linecap:butt;stroke-linejoin:round;}
  </style>
 </defs>
 <g id="figure_1">
  <g id="patch_1">
   <path d="
M0 288
L576 288
L576 0
L0 0
z
" style="fill:none;"/>
  </g>
  <g id="axes_1">
   <g id="line2d_1">
    <path clip-path="url(#p23b3318762)" d="
M11.52 143.474
L21.24 142.863
L29.88 142.088
L37.44 141.197
L45 140.079
L51.48 138.919
L57.96 137.555
L64.44 135.972
L70.92 134.156
L77.4 132.094
L83.88 129.775
L90.36 127.191
L96.84 124.336
L103.32 121.207
L109.8 117.806
L116.28 114.136
L122.76 110.204
L129.24 106.021
L136.8 100.846
L144.36 95.3812
L153 88.8293
L162.72 81.148
L175.68 70.5817
L197.28 52.9254
L207 45.3095
L214.56 39.6639
L221.04 35.0757
L227.52 30.7639
L232.92 27.411
L238.32 24.3002
L243.72 21.4524
L249.12 18.8868
L253.44 17.0494
L257.76 15.412
L262.08 13.9817
L266.4 12.7651
L270.72 11.7675
L275.04 10.9934
L279.36 10.4463
L283.68 10.1287
L288 10.042
L292.32 10.1865
L296.64 10.5617
L300.96 11.1658
L305.28 11.9961
L309.6 13.0489
L313.92 14.3195
L318.24 15.8022
L322.56 17.4903
L326.88 19.3765
L332.28 22
L337.68 24.902
L343.08 28.0629
L348.48 31.4616
L354.96 35.8223
L361.44 40.4525
L369 46.1381
L377.64 52.9254
L389.52 62.5775
L414.36 82.8783
L424.08 90.4947
L432.72 96.9701
L440.28 102.356
L447.84 107.442
L454.32 111.543
L460.8 115.388
L467.28 118.97
L473.76 122.281
L480.24 125.318
L486.72 128.082
L493.2 130.577
L499.68 132.809
L506.16 134.788
L512.64 136.525
L519.12 138.033
L525.6 139.327
L533.16 140.588
L540.72 141.605
L548.28 142.407
L556.92 143.095
L563.4 143.474
L563.4 143.474" style="fill:none;opacity:0.4;stroke:#4c72b0;stroke-linecap:round;stroke-width:10;"/>
   </g>
   <g id="line2d_2">
    <path clip-path="url(#p23b3318762)" d="
M11.52 147.72
L16.92 149.269
L22.32 151.079
L27.72 153.161
L33.12 155.524
L38.52 158.175
L43.92 161.116
L49.32 164.346
L54.72 167.862
L60.12 171.653
L65.52 175.708
L70.92 180.01
L77.4 185.467
L83.88 191.203
L91.44 198.176
L102.24 208.471
L119.52 224.963
L127.08 231.843
L133.56 237.419
L138.96 241.77
L144.36 245.795
L148.68 248.746
L153 251.429
L157.32 253.819
L161.64 255.891
L164.88 257.224
L168.12 258.356
L171.36 259.28
L174.6 259.987
L177.84 260.47
L181.08 260.722
L184.32 260.737
L187.56 260.51
L190.8 260.036
L194.04 259.311
L197.28 258.333
L200.52 257.1
L203.76 255.61
L207 253.862
L210.24 251.858
L213.48 249.599
L216.72 247.087
L219.96 244.324
L223.2 241.317
L226.44 238.068
L230.76 233.373
L235.08 228.276
L239.4 222.797
L243.72 216.958
L248.04 210.782
L253.44 202.629
L258.84 194.047
L265.32 183.267
L272.88 170.169
L282.6 152.794
L303.12 115.932
L310.68 102.904
L317.16 92.2049
L322.56 83.7038
L327.96 75.6434
L332.28 69.5494
L336.6 63.7982
L340.92 58.4132
L345.24 53.4153
L349.56 48.8227
L352.8 45.6538
L356.04 42.7273
L359.28 40.048
L362.52 37.6196
L365.76 35.4451
L369 33.5265
L372.24 31.8648
L375.48 30.4603
L378.72 29.3123
L381.96 28.4192
L385.2 27.7787
L388.44 27.3875
L391.68 27.2416
L394.92 27.3363
L398.16 27.6658
L401.4 28.2241
L404.64 29.0041
L407.88 29.9982
L411.12 31.1984
L414.36 32.5958
L418.68 34.75
L423 37.2153
L427.32 39.9674
L431.64 42.981
L435.96 46.2299
L441.36 50.581
L446.76 55.2047
L453.24 61.0379
L461.88 69.1487
L489.96 95.8171
L497.52 102.533
L504 107.99
L510.48 113.123
L515.88 117.127
L521.28 120.864
L526.68 124.323
L532.08 127.496
L537.48 130.379
L542.88 132.971
L548.28 135.278
L553.68 137.305
L559.08 139.061
L563.4 140.28
L563.4 140.28" style="fill:none;opacity:0.4;stroke:#55a868;stroke-linecap:round;stroke-width:10;"/>
   </g>
   <g id="line2d_3">
    <path clip-path="url(#p23b3318762)" d="
M11.52 161.103
L15.84 164.745
L20.16 168.637
L25.56 173.83
L30.96 179.349
L37.44 186.337
L45 194.874
L56.88 208.717
L67.68 221.184
L74.16 228.336
L79.56 233.98
L83.88 238.229
L88.2 242.195
L92.52 245.836
L95.76 248.331
L99 250.604
L102.24 252.641
L105.48 254.427
L108.72 255.947
L111.96 257.189
L115.2 258.141
L118.44 258.792
L121.68 259.131
L124.92 259.151
L128.16 258.845
L131.4 258.206
L134.64 257.231
L137.88 255.917
L141.12 254.262
L144.36 252.267
L147.6 249.933
L150.84 247.265
L154.08 244.267
L157.32 240.945
L160.56 237.309
L163.8 233.369
L167.04 229.135
L171.36 223.056
L175.68 216.514
L180 209.548
L184.32 202.201
L189.72 192.555
L196.2 180.434
L203.76 165.778
L224.28 125.669
L230.76 113.677
L236.16 104.195
L240.48 97.0252
L244.8 90.2848
L249.12 84.0263
L252.36 79.6779
L255.6 75.647
L258.84 71.9514
L262.08 68.6072
L265.32 65.6294
L268.56 63.0312
L271.8 60.8239
L273.96 59.5746
L276.12 58.5059
L278.28 57.62
L280.44 56.9187
L282.6 56.4032
L284.76 56.0747
L286.92 55.9338
L289.08 55.9808
L291.24 56.2156
L293.4 56.6376
L295.56 57.2462
L297.72 58.04
L299.88 59.0175
L302.04 60.1768
L304.2 61.5156
L307.44 63.8543
L310.68 66.5805
L313.92 69.6819
L317.16 73.145
L320.4 76.9542
L323.64 81.093
L326.88 85.543
L331.2 91.9267
L335.52 98.7795
L339.84 106.048
L345.24 115.634
L350.64 125.669
L358.2 140.245
L381.96 186.559
L387.36 196.47
L392.76 205.919
L397.08 213.081
L401.4 219.84
L405.72 226.156
L410.04 231.989
L413.28 236.029
L416.52 239.768
L419.76 243.195
L423 246.302
L426.24 249.081
L429.48 251.526
L432.72 253.635
L435.96 255.403
L439.2 256.831
L442.44 257.919
L445.68 258.669
L448.92 259.086
L452.16 259.174
L455.4 258.94
L458.64 258.392
L461.88 257.54
L465.12 256.393
L468.36 254.964
L471.6 253.265
L474.84 251.31
L478.08 249.114
L481.32 246.691
L485.64 243.137
L489.96 239.248
L494.28 235.067
L499.68 229.491
L506.16 222.399
L513.72 213.755
L536.4 187.535
L542.88 180.488
L548.28 174.909
L553.68 169.648
L559.08 164.745
L563.4 161.103
L563.4 161.103" style="fill:none;opacity:0.4;stroke:#c44e52;stroke-linecap:round;stroke-width:10;"/>
   </g>
   <g id="line2d_4">
    <path clip-path="url(#p23b3318762)" d="
M11.52 88.2388
L23.4 70.7125
L29.88 61.5921
L35.28 54.4271
L39.6 49.0675
L43.92 44.1045
L47.16 40.6774
L50.4 37.5294
L53.64 34.6829
L56.88 32.1586
L60.12 29.9763
L63.36 28.1538
L65.52 27.1468
L67.68 26.3115
L69.84 25.6517
L72 25.1712
L74.16 24.873
L76.32 24.7601
L78.48 24.8347
L80.64 25.0987
L82.8 25.5536
L84.96 26.2005
L87.12 27.0399
L89.28 28.0718
L91.44 29.2958
L93.6 30.7111
L95.76 32.3163
L99 35.0761
L102.24 38.2506
L105.48 41.8294
L108.72 45.7993
L111.96 50.145
L115.2 54.849
L118.44 59.8915
L122.76 67.1032
L127.08 74.8204
L131.4 82.9799
L136.8 93.6972
L143.28 107.128
L154.08 130.204
L163.8 150.794
L169.2 161.795
L174.6 172.283
L178.92 180.201
L183.24 187.62
L186.48 192.814
L189.72 197.662
L192.96 202.137
L196.2 206.217
L199.44 209.88
L202.68 213.108
L204.84 215.009
L207 216.706
L209.16 218.194
L211.32 219.469
L213.48 220.53
L215.64 221.374
L217.8 221.999
L219.96 222.405
L222.12 222.591
L224.28 222.557
L226.44 222.303
L228.6 221.832
L230.76 221.144
L232.92 220.242
L235.08 219.129
L237.24 217.808
L239.4 216.284
L241.56 214.56
L244.8 211.612
L248.04 208.245
L251.28 204.482
L254.52 200.346
L257.76 195.862
L261 191.06
L265.32 184.211
L269.64 176.923
L275.04 167.318
L281.52 155.283
L300.96 118.724
L306.36 109.218
L310.68 102.033
L315 95.3058
L318.24 90.6062
L321.48 86.2355
L324.72 82.2207
L327.96 78.5872
L331.2 75.3579
L334.44 72.5533
L336.6 70.9286
L338.76 69.5055
L340.92 68.2882
L343.08 67.2804
L345.24 66.4853
L347.4 65.9054
L349.56 65.5428
L351.72 65.3989
L353.88 65.4747
L356.04 65.7705
L358.2 66.2862
L360.36 67.021
L362.52 67.9735
L364.68 69.142
L366.84 70.5239
L369 72.1164
L371.16 73.916
L373.32 75.9186
L376.56 79.2934
L379.8 83.0976
L383.04 87.3118
L386.28 91.9139
L389.52 96.8801
L392.76 102.184
L397.08 109.734
L401.4 117.766
L406.8 128.369
L413.28 141.715
L421.92 160.114
L433.8 185.404
L440.28 198.651
L445.68 209.151
L450 217.098
L454.32 224.57
L458.64 231.507
L461.88 236.326
L465.12 240.793
L468.36 244.89
L471.6 248.601
L474.84 251.911
L478.08 254.81
L481.32 257.289
L483.48 258.704
L485.64 259.928
L487.8 260.96
L489.96 261.799
L492.12 262.446
L494.28 262.901
L496.44 263.165
L498.6 263.24
L500.76 263.127
L502.92 262.829
L505.08 262.348
L507.24 261.688
L509.4 260.853
L511.56 259.846
L514.8 258.024
L518.04 255.841
L521.28 253.317
L524.52 250.471
L527.76 247.323
L531 243.896
L535.32 238.932
L539.64 233.573
L543.96 227.877
L549.36 220.379
L555.84 210.989
L563.4 199.761
L563.4 199.761" style="fill:none;opacity:0.4;stroke:#8172b2;stroke-linecap:round;stroke-width:10;"/>
   </g>
   <g id="line2d_5">
    <path clip-path="url(#p23b3318762)" d="
M11.52 18.9177
L14.76 15.5543
L16.92 13.5775
L19.08 11.8209
L21.24 10.2905
L23.4 8.99196
L25.56 7.93004
L27.72 7.10906
L29.88 6.53269
L32.04 6.20394
L34.2 6.12516
L36.36 6.29802
L38.52 6.72353
L40.68 7.40201
L42.84 8.33309
L45 9.51571
L47.16 10.9481
L49.32 12.6279
L51.48 14.5518
L53.64 16.7162
L55.8 19.1165
L59.04 23.1478
L62.28 27.6781
L65.52 32.6842
L68.76 38.1396
L72 44.0152
L75.24 50.279
L79.56 59.1748
L83.88 68.6111
L89.28 81.0225
L95.76 96.56
L116.28 146.436
L121.68 158.724
L126 168.031
L130.32 176.771
L133.56 182.901
L136.8 188.629
L140.04 193.922
L143.28 198.753
L146.52 203.095
L149.76 206.926
L151.92 209.186
L154.08 211.206
L156.24 212.981
L158.4 214.508
L160.56 215.784
L162.72 216.808
L164.88 217.577
L167.04 218.092
L169.2 218.354
L171.36 218.362
L173.52 218.119
L175.68 217.627
L177.84 216.889
L180 215.911
L182.16 214.695
L184.32 213.248
L186.48 211.576
L188.64 209.685
L190.8 207.582
L194.04 204.05
L197.28 200.09
L200.52 195.734
L203.76 191.017
L208.08 184.229
L212.4 176.959
L217.8 167.344
L224.28 155.299
L239.4 127
L244.8 117.484
L249.12 110.315
L253.44 103.641
L256.68 99.0124
L259.92 94.7452
L263.16 90.8703
L266.4 87.4157
L269.64 84.4067
L271.8 82.6591
L273.96 81.125
L276.12 79.8092
L278.28 78.7161
L280.44 77.8492
L282.6 77.2112
L284.76 76.8042
L286.92 76.6296
L289.08 76.6878
L291.24 76.9787
L293.4 77.5014
L295.56 78.2542
L297.72 79.2346
L299.88 80.4395
L302.04 81.865
L304.2 83.5065
L306.36 85.3588
L309.6 88.5189
L312.84 92.1165
L316.08 96.1255
L319.32 100.517
L322.56 105.258
L326.88 112.064
L331.2 119.343
L336.6 128.962
L343.08 141.006
L358.2 169.305
L363.6 178.817
L367.92 185.975
L372.24 192.627
L375.48 197.228
L378.72 201.456
L381.96 205.277
L385.2 208.66
L387.36 210.657
L389.52 212.44
L391.68 214
L393.84 215.332
L396 216.43
L398.16 217.289
L400.32 217.904
L402.48 218.271
L404.64 218.389
L406.8 218.255
L408.96 217.867
L411.12 217.224
L413.28 216.328
L415.44 215.178
L417.6 213.776
L419.76 212.124
L421.92 210.226
L424.08 208.086
L426.24 205.707
L429.48 201.703
L432.72 197.196
L435.96 192.208
L439.2 186.766
L442.44 180.901
L445.68 174.644
L450 165.753
L454.32 156.319
L459.72 143.907
L466.2 128.368
L486.72 78.4937
L492.12 66.2064
L496.44 56.8966
L500.76 48.15
L504 42.0119
L507.24 36.2729
L510.48 30.9642
L513.72 26.1139
L516.96 21.7475
L520.2 17.8871
L522.36 15.6042
L524.52 13.5595
L526.68 11.7572
L528.84 10.2008
L531 8.89305
L533.16 7.83602
L535.32 7.03115
L537.48 6.47915
L539.64 6.18005
L541.8 6.13318
L543.96 6.3372
L546.12 6.7901
L548.28 7.48919
L550.44 8.43113
L552.6 9.61196
L554.76 11.0271
L556.92 12.6713
L559.08 14.5388
L561.24 16.6232
L563.4 18.9177
L563.4 18.9177" style="fill:none;opacity:0.4;stroke:#ccb974;stroke-linecap:round;stroke-width:10;"/>
   </g>
   <g id="text_1">
    <!-- mtspec -->
    <defs>
     <path d="
M2.34375 14.7969
L16.1094 16.8906
Q17 12.8906 19.6719 10.8125
Q22.3594 8.73438 27.2031 8.73438
Q32.5156 8.73438 35.2031 10.6875
Q37.0156 12.0625 37.0156 14.3594
Q37.0156 15.9219 36.0312 16.9375
Q35.0156 17.9219 31.4531 18.75
Q14.8438 22.4062 10.4062 25.4375
Q4.25 29.6406 4.25 37.1094
Q4.25 43.8438 9.5625 48.4375
Q14.8906 53.0312 26.0781 53.0312
Q36.7188 53.0312 41.8906 49.5625
Q47.0781 46.0938 49.0312 39.3125
L36.0781 36.9219
Q35.25 39.9375 32.9219 41.5469
Q30.6094 43.1719 26.3125 43.1719
Q20.9062 43.1719 18.5625 41.6562
Q17 40.5781 17 38.875
Q17 37.4062 18.3594 36.375
Q20.2188 35.0156 31.1719 32.5156
Q42.1406 30.0312 46.4844 26.4219
Q50.7812 22.75 50.7812 16.2188
Q50.7812 9.07812 44.8281 3.95312
Q38.875 -1.17188 27.2031 -1.17188
Q16.6094 -1.17188 10.4219 3.125
Q4.25 7.42188 2.34375 14.7969" id="Arial-BoldMT-73"/>
     <path d="
M52.3906 36.5312
L38.875 34.0781
Q38.1875 38.1406 35.7656 40.1875
Q33.3438 42.2344 29.5 42.2344
Q24.3594 42.2344 21.3125 38.6875
Q18.2656 35.1562 18.2656 26.8594
Q18.2656 17.625 21.3594 13.8125
Q24.4688 10.0156 29.6875 10.0156
Q33.5938 10.0156 36.0781 12.2344
Q38.5781 14.4531 39.5938 19.875
L53.0781 17.5781
Q50.9844 8.29688 45.0156 3.5625
Q39.0625 -1.17188 29.0469 -1.17188
Q17.6719 -1.17188 10.9062 6
Q4.15625 13.1875 4.15625 25.875
Q4.15625 38.7188 10.9375 45.875
Q17.7188 53.0312 29.2969 53.0312
Q38.7656 53.0312 44.3594 48.9531
Q49.9531 44.875 52.3906 36.5312" id="Arial-BoldMT-63"/>
     <path d="
M37.2031 16.5
L50.875 14.2031
Q48.25 6.6875 42.5469 2.75
Q36.8594 -1.17188 28.3281 -1.17188
Q14.7969 -1.17188 8.29688 7.67188
Q3.17188 14.75 3.17188 25.5312
Q3.17188 38.4219 9.90625 45.7188
Q16.6562 53.0312 26.9531 53.0312
Q38.5312 53.0312 45.2188 45.3906
Q51.9062 37.75 51.6094 21.9688
L17.2344 21.9688
Q17.3906 15.875 20.5625 12.4688
Q23.7344 9.07812 28.4688 9.07812
Q31.6875 9.07812 33.875 10.8281
Q36.0781 12.5938 37.2031 16.5
M37.9844 30.375
Q37.8438 36.3281 34.9062 39.4219
Q31.9844 42.5312 27.7812 42.5312
Q23.2969 42.5312 20.3594 39.2656
Q17.4375 35.9844 17.4844 30.375
z
" id="Arial-BoldMT-65"/>
     <path d="
M30.9531 51.8594
L30.9531 40.9219
L21.5781 40.9219
L21.5781 20.0156
Q21.5781 13.6719 21.8438 12.625
Q22.125 11.5781 23.0781 10.8906
Q24.0312 10.2031 25.3906 10.2031
Q27.2969 10.2031 30.9062 11.5312
L32.0781 0.875
Q27.2969 -1.17188 21.2344 -1.17188
Q17.5312 -1.17188 14.5469 0.0625
Q11.5781 1.3125 10.1875 3.29688
Q8.79688 5.28125 8.25 8.64062
Q7.8125 11.0312 7.8125 18.3125
L7.8125 40.9219
L1.51562 40.9219
L1.51562 51.8594
L7.8125 51.8594
L7.8125 62.1562
L21.5781 70.1719
L21.5781 51.8594
z
" id="Arial-BoldMT-74"/>
     <path d="
M6.78125 51.8594
L19.5781 51.8594
L19.5781 44.2344
Q22.0781 48.1406 26.3125 50.5781
Q30.5625 53.0312 35.75 53.0312
Q44.7812 53.0312 51.0781 45.9531
Q57.375 38.875 57.375 26.2188
Q57.375 13.2344 51.0156 6.03125
Q44.6719 -1.17188 35.6406 -1.17188
Q31.3438 -1.17188 27.8438 0.53125
Q24.3594 2.25 20.5156 6.39062
L20.5156 -19.7344
L6.78125 -19.7344
z

M20.3594 26.8125
Q20.3594 18.0625 23.8281 13.8906
Q27.2969 9.71875 32.2812 9.71875
Q37.0625 9.71875 40.2344 13.5469
Q43.4062 17.3906 43.4062 26.125
Q43.4062 34.2812 40.125 38.2344
Q36.8594 42.1875 32.0312 42.1875
Q27 42.1875 23.6719 38.2969
Q20.3594 34.4219 20.3594 26.8125" id="Arial-BoldMT-70"/>
     <path d="
M6.15625 51.8594
L18.7969 51.8594
L18.7969 44.7812
Q25.5938 53.0312 34.9688 53.0312
Q39.9375 53.0312 43.5938 50.9688
Q47.2656 48.9219 49.6094 44.7812
Q53.0312 48.9219 56.9844 50.9688
Q60.9375 53.0312 65.4375 53.0312
Q71.1406 53.0312 75.0938 50.7031
Q79.0469 48.3906 81 43.8906
Q82.4219 40.5781 82.4219 33.1562
L82.4219 0
L68.7031 0
L68.7031 29.6406
Q68.7031 37.3594 67.2812 39.5938
Q65.375 42.5312 61.4219 42.5312
Q58.5469 42.5312 56 40.7656
Q53.4688 39.0156 52.3438 35.625
Q51.2188 32.2344 51.2188 24.9062
L51.2188 0
L37.5 0
L37.5 28.4219
Q37.5 35.9844 36.7656 38.1719
Q36.0312 40.375 34.4844 41.4531
Q32.9531 42.5312 30.3281 42.5312
Q27.1562 42.5312 24.6094 40.8125
Q22.0781 39.1094 20.9688 35.8906
Q19.875 32.6719 19.875 25.2031
L19.875 0
L6.15625 0
z
" id="Arial-BoldMT-6d"/>
    </defs>
    <g style="fill:#4c4c4c;" transform="translate(11.52 98.8115625)scale(1.3 -1.3)">
     <use xlink:href="#Arial-BoldMT-6d"/>
     <use x="88.916015625" xlink:href="#Arial-BoldMT-74"/>
     <use x="122.216796875" xlink:href="#Arial-BoldMT-73"/>
     <use x="177.83203125" xlink:href="#Arial-BoldMT-70"/>
     <use x="238.916015625" xlink:href="#Arial-BoldMT-65"/>
     <use x="294.53125" xlink:href="#Arial-BoldMT-63"/>
    </g>
   </g>
  </g>
 </g>
 <defs>
  <clipPath id="p23b3318762">
   <rect height="276.48" width="552.96" x="11.52" y="5.76"/>
  </clipPath>
 </defs>
</svg>
